<svg xmlns="http://www.w3.org/2000/svg" xmlns:xlink="http://www.w3.org/1999/xlink" width="512" height="512" viewBox="0 0 512 512">
  <defs>
    <clipPath id="clip-Tech-blogui">
      <rect width="512" height="512"/>
    </clipPath>
  </defs>
  <g id="Tech-blogui" clip-path="url(#clip-Tech-blogui)">
    <rect width="512" height="512" fill="#fff"/>
    <g id="Grupo_1" data-name="Grupo 1" transform="translate(15 25)">
      <path id="Subtração_1" data-name="Subtração 1" d="M220.815,106.636a166.12,166.12,0,0,0-30.7,2.782,145.546,145.546,0,0,0-28.284,8.343,143.809,143.809,0,0,0-25.871,13.905,166.329,166.329,0,0,0-42.926,42.828,143.011,143.011,0,0,0-13.9,25.778,144.64,144.64,0,0,0-8.343,28.19A165.1,165.1,0,0,0,68,259.071a162.169,162.169,0,0,0,2.734,30.036A142.493,142.493,0,0,0,92.61,342.5a162.791,162.791,0,0,0,19.137,23.36,160.9,160.9,0,0,0,22.971,19.39A140.588,140.588,0,0,0,159.89,399.1a138.8,138.8,0,0,0,27.374,8.31,159.183,159.183,0,0,0,59.623-.092,130.932,130.932,0,0,0,27.279-8.592,128.037,128.037,0,0,0,24.51-14.32,144.674,144.674,0,0,0,21.741-20.048A135.367,135.367,0,0,0,335.8,343.14a116.286,116.286,0,0,0,10.175-22.723,170.444,170.444,0,0,0,5.822-27.267,236.691,236.691,0,0,0,1.939-31.054s-1.457-7.393-13.06-9.657-80.3-5.5-106.463,4.674-16.409,25.67,1.816,36.038,69.805.758,69.805.758a76.784,76.784,0,0,1-2.947,14.888,73.74,73.74,0,0,1-5.811,13.8,80.036,80.036,0,0,1-8.679,12.711,96.4,96.4,0,0,1-11.542,11.622,100.683,100.683,0,0,1-13.388,9.609,88.545,88.545,0,0,1-14.213,6.864,85.418,85.418,0,0,1-15.042,4.118,90.991,90.991,0,0,1-15.87,1.373,95.634,95.634,0,0,1-36.877-7.338,109.287,109.287,0,0,1-17.408-9.172,134.347,134.347,0,0,1-16.722-12.841A111.682,111.682,0,0,1,132,322.653a99.842,99.842,0,0,1-10.947-19.042,102.931,102.931,0,0,1-6.569-21.2,121.4,121.4,0,0,1-2.189-23.349,127.59,127.59,0,0,1,1.965-22.675,107.776,107.776,0,0,1,5.894-20.683,102.069,102.069,0,0,1,9.822-18.7A109.746,109.746,0,0,1,143.733,180.3a111.722,111.722,0,0,1,16.651-14,101.247,101.247,0,0,1,18.521-10,104.254,104.254,0,0,1,20.392-6,121.122,121.122,0,0,1,22.261-2,102.332,102.332,0,0,1,24.864,2.994,97.011,97.011,0,0,1,22.9,8.982,111,111,0,0,1,20.935,14.971c6.983,6.36,6.367,23.247,18.971,20.96s31.445-30.111,31.445-30.111a229.884,229.884,0,0,0-27.693-27.078,150.685,150.685,0,0,0-28.166-18.367,145.472,145.472,0,0,0-30.865-10.509,155.235,155.235,0,0,0-33.137-3.5Z" transform="translate(19.852 -27.038)" fill="#fff" stroke="#000" stroke-linejoin="round" stroke-width="4"/>
      <g id="Grupo_2" data-name="Grupo 2" transform="translate(-9 -19)">
        <path id="Subtração_1-2" data-name="Subtração 1" d="M229.2,518.113Z" transform="translate(21.5 -23)" fill="none" stroke="#676767" stroke-width="4" opacity="0.183"/>
        <path id="Caminho_1" data-name="Caminho 1" d="M61.889,382.067C51.327,374.2,41.08,278.318,41.08,278.318L24.742,105.709,21.55,85.839l106.458-34.39L243.784,5.878l184.177,67.4s12.364,6.222,33.7,19.2,3.188,59.725,0,132.123S448.7,326.411,448.906,382.067c-8.218,6.57-42.176,33.831-44.485,35.046s-128.2,71.911-128.2,71.911-13.872,11.339-54.814,0C191.048,467.84,72.451,389.933,61.889,382.067Z" fill="none" stroke="#000" stroke-width="3"/>
      </g>
    </g>
  </g>
</svg>
