<svg xmlns="http://www.w3.org/2000/svg" width="475.083" height="509.233" viewBox="0 0 475.083 509.233">
  <path id="Subtração_1" data-name="Subtração 1" d="M237.547,535.755h0L36.212,424.265,0,111.9,237.547,27.5,474,111.9,438.6,424.264,237.547,535.755ZM246.384,116a185.065,185.065,0,0,0-34.2,3.1,162.14,162.14,0,0,0-31.509,9.294,160.2,160.2,0,0,0-28.819,15.491,185.289,185.289,0,0,0-47.817,47.711A159.313,159.313,0,0,0,88.55,220.3a161.12,161.12,0,0,0-9.294,31.4,183.922,183.922,0,0,0-3.1,34.093A180.647,180.647,0,0,0,79.2,319.26a158.737,158.737,0,0,0,24.363,59.484,181.346,181.346,0,0,0,21.317,26.025,179.225,179.225,0,0,0,25.59,21.595,156.607,156.607,0,0,0,28.042,15.425,154.625,154.625,0,0,0,30.494,9.255,177.325,177.325,0,0,0,66.419-.105,145.842,145.842,0,0,0,30.388-9.571,142.619,142.619,0,0,0,27.3-15.952,161.154,161.154,0,0,0,24.218-22.333,150.84,150.84,0,0,0,17.138-23.625,129.524,129.524,0,0,0,11.338-25.312,189.841,189.841,0,0,0,6.487-30.375,263.667,263.667,0,0,0,2.162-34.594V278.418H259.884v46.2H341.1a85.537,85.537,0,0,1-3.283,16.585,82.153,82.153,0,0,1-6.473,15.372,89.159,89.159,0,0,1-9.664,14.159,107.385,107.385,0,0,1-12.854,12.947,112.139,112.139,0,0,1-14.91,10.705,98.618,98.618,0,0,1-15.833,7.646,95.153,95.153,0,0,1-16.756,4.588,101.375,101.375,0,0,1-17.679,1.529,106.534,106.534,0,0,1-41.081-8.174,121.746,121.746,0,0,1-19.393-10.217,149.662,149.662,0,0,1-18.628-14.3,124.409,124.409,0,0,1-17.073-18.813,111.208,111.208,0,0,1-12.195-21.212,114.655,114.655,0,0,1-7.317-23.612,135.237,135.237,0,0,1-2.439-26.011,142.132,142.132,0,0,1,2.188-25.26,120.07,120.07,0,0,1,6.565-23.045,113.692,113.692,0,0,1,10.942-20.83,122.247,122.247,0,0,1,15.319-18.615,124.457,124.457,0,0,1,18.549-15.6,112.778,112.778,0,0,1,20.632-11.14,116.133,116.133,0,0,1,22.715-6.684,134.933,134.933,0,0,1,24.8-2.228,113.994,113.994,0,0,1,27.7,3.335,108.066,108.066,0,0,1,25.51,10.007,123.664,123.664,0,0,1,23.322,16.677,163.625,163.625,0,0,1,21.134,23.348l35.015-33.538a256.064,256.064,0,0,0-30.85-30.164,167.845,167.845,0,0,0-31.377-20.461A162.049,162.049,0,0,0,283.3,119.9,172.928,172.928,0,0,0,246.384,116Z" transform="translate(0.542 -26.969)" stroke="#707070" stroke-width="1" opacity="0.06"/>
</svg>
